<svg xmlns="http://www.w3.org/2000/svg" width="200" height="200" fill="none" viewBox="0 0 200 200">
  <path d="m153.7 23.92-.1-.07v88.03c0 5.33-2.16 9.05-6.46 13.4l-4.76 5.03c-3.13-.6-5.49.1-7.48 2.39l-10.88 12.41c-2.68 3.14-2.57 6.88.55 9.61l5.13 4.26c3.03 1.89 6.42-.17 8.74-3.22l9.98-10.47c1.95-2.18 2.1-4.58 1.42-6.59l8-8.82c5.25-5.17 7.88-9.63 7.88-17.1V57.51l.51.11c8.92 13.29 12.44 26.44 12.44 42.29 0 39.8-32.57 78.76-79.62 78.76-42.25 0-77.94-34.5-77.94-78.42 0-43.11 35.43-78.92 78.01-78.92 12.03 0 23.85 2.58 33.75 7.56 4.85 2.52 10-.46 10.3-5.95.17-3.53-1.72-6.6-4.97-8.17-11.73-5.61-24.55-8.21-39.15-8.21-50.47 0-93 41.47-93 93.55 0 49.77 40.35 93.6 92.74 93.6 52.15 0 95.08-43.97 95.08-93.67 0-29.83-13.73-54.97-40.17-76.12" fill="url(#a)"/>
  <path d="M99.57 59.98c-22.63 0-39.3 18.69-39.3 40.01 0 20.89 16.11 39.52 39.19 39.52 21.9 0 39.96-19.32 39.96-39.43 0-20.97-17.3-40.1-39.85-40.1m-.23 65.12c-13.68 0-24.39-11.49-24.39-25.01 0-13.53 11.06-25.1 24.67-25.1 13.69 0 25.22 11.09 25.22 24.72 0 13.41-11.03 25.39-25.5 25.39" fill="url(#b)"/>
  <path d="M100 33.44c-33.94 0-66.89 28.79-66.89 66.46 0 5.38 3.51 7.07 6.6 7.07 4.53 0 7.31-2.99 7.31-7.34 0-27.75 22.75-52.82 52.69-52.82 5.16 0 6.49-4.35 6.49-6.87 0-3.75-2.62-6.5-6.2-6.5" fill="url(#c)"/>
  <path d="M99.81 89.02c-7 0-11 6.33-11 10.99 0 6.45 5.11 11.15 10.9 11.15 6.1 0 10.87-5.8 10.87-11.05 0-6.15-5.13-11.09-10.77-11.09" fill="url(#d)"/>
  <defs>
    <linearGradient id="a" x1="6.09" x2="193.9" y1="6.562" y2="193.7" gradientUnits="userSpaceOnUse">
      <stop stop-color="#10b981" offset="0"/>
      <stop stop-color="#10b981" offset="1"/>
    </linearGradient>
    <linearGradient id="b" x1="60.27" x2="107.9" y1="59.98" y2="151.5" gradientUnits="userSpaceOnUse">
      <stop stop-color="#10b981" offset="0"/>
      <stop stop-color="#10b981" offset="1"/>
    </linearGradient>
    <linearGradient id="c" x1="33.12" x2="73.09" y1="33.44" y2="117.3" gradientUnits="userSpaceOnUse">
      <stop stop-color="#10b981" offset="0"/>
      <stop stop-color="#10b981" offset="1"/>
    </linearGradient>
    <linearGradient id="d" x1="88.81" x2="105.4" y1="89.02" y2="117.2" gradientUnits="userSpaceOnUse">
      <stop stop-color="#10b981" offset="0"/>
      <stop stop-color="#10b981" offset="1"/>
    </linearGradient>
  </defs>
</svg>
